<svg width="256" height="256" viewBox="0 0 256 256" fill="none" xmlns="http://www.w3.org/2000/svg">
<mask id="mask0" mask-type="alpha" maskUnits="userSpaceOnUse" x="0" y="0" width="256" height="256">
<circle cx="128" cy="128" r="128" fill="#C4C4C4"/>
</mask>
<g mask="url(#mask0)">
<rect width="256" height="256" fill="url(#paint0_linear)"/>
<path fill-rule="evenodd" clip-rule="evenodd" d="M184.848 92.1487C169.273 92.2609 154.265 97.511 138.978 99.6102C132.597 100.486 126.021 100.701 119.63 99.8866C111.133 98.8033 102.906 95.9255 94.4145 94.6358C86.8258 93.4833 79.1417 92.28 71.5051 92.2316C58.1599 92.1469 45.2525 96.6528 32.1695 99.0851C32.1695 103.212 31.3922 108.51 33.3483 111.41C35.3658 114.402 38.7693 117.139 39.6522 121.193C41.7459 130.809 44.7183 140.235 48.5187 149.271C50.3656 153.662 53.8516 156.724 57.744 158.833C67.1173 163.911 78.2115 164.658 88.495 163.061C103.139 160.786 111.083 148.937 117.145 135.398C119.413 129.894 119.666 123.542 122.654 118.513C124.429 115.525 128.55 116.783 131.495 116.772C134.44 116.761 136.936 122.043 137.85 125.56C141.085 138.004 146.479 151.207 157.198 157.727C173.205 167.464 198.423 165.643 208.808 148.082C212.873 141.21 213.995 132.871 216.035 125.09C217.276 120.353 218.385 114.706 222.8 112.101C224.581 111.05 223.331 106.856 223.594 104.419C223.881 101.762 224.433 99.4134 220.929 98.8917C214.817 97.9815 208.888 95.2134 202.632 94.2766C196.704 93.3888 190.896 92.1051 184.848 92.1487V92.1487ZM81.8835 96.5703C86.3044 96.54 90.7068 96.8889 95.0039 97.8692C120.607 103.709 121.124 115.085 110.584 138.604C101.996 157.768 84.2046 162.569 66.2774 157.976C58.0135 155.858 52.3626 149.638 49.6975 141.118C46.8847 132.127 44.757 122.574 45.2386 113.124C45.8837 100.469 59.1568 98.6903 68.6606 97.5376C73.0216 97.0086 77.4626 96.6006 81.8835 96.5703L81.8835 96.5703ZM175.366 96.5703C179.787 96.6006 184.228 97.0086 188.589 97.5376C198.093 98.6903 211.366 100.469 212.011 113.124C212.493 122.574 210.365 132.127 207.552 141.118C204.887 149.638 199.236 155.858 190.972 157.976C173.045 162.569 155.254 157.768 146.666 138.604C136.125 115.085 136.643 103.709 162.246 97.8692C166.543 96.8889 170.945 96.54 175.366 96.5703V96.5703Z" fill="black"/>
<path d="M184.848 92.1487L184.851 92.6487L185.348 92.6451V92.1487H184.848ZM138.978 99.6102L138.91 99.1148L138.91 99.1148L138.978 99.6102ZM119.63 99.8866L119.567 100.383L119.567 100.383L119.63 99.8866ZM94.4145 94.6358L94.3394 95.1302L94.3394 95.1302L94.4145 94.6358ZM71.5051 92.2316L71.5082 91.7316L71.5082 91.7316L71.5051 92.2316ZM32.1695 99.0851L32.0781 98.5936L31.6695 98.6695V99.0851H32.1695ZM33.3483 111.41L32.9337 111.69L32.9337 111.69L33.3483 111.41ZM39.6522 121.193L40.1408 121.087L40.1408 121.087L39.6522 121.193ZM48.5187 149.271L48.0578 149.465L48.0578 149.465L48.5187 149.271ZM57.744 158.833L57.5058 159.272L57.5058 159.272L57.744 158.833ZM88.495 163.061L88.4183 162.567L88.4183 162.567L88.495 163.061ZM117.145 135.398L117.601 135.602L117.604 135.595L117.607 135.588L117.145 135.398ZM122.654 118.513L123.084 118.768L123.084 118.768L122.654 118.513ZM131.495 116.772L131.497 117.272L131.497 117.272L131.495 116.772ZM137.85 125.56L137.366 125.685L137.366 125.686L137.85 125.56ZM157.198 157.727L157.458 157.3L157.458 157.3L157.198 157.727ZM208.808 148.082L209.238 148.337L209.238 148.337L208.808 148.082ZM216.035 125.09L215.551 124.963L215.551 124.963L216.035 125.09ZM222.8 112.101L222.546 111.671L222.546 111.671L222.8 112.101ZM223.594 104.419L224.091 104.472L224.091 104.472L223.594 104.419ZM220.929 98.8917L220.855 99.3862L220.855 99.3862L220.929 98.8917ZM202.632 94.2766L202.558 94.7711L202.558 94.7711L202.632 94.2766ZM184.848 92.1487L184.844 91.6487L184.348 91.6523V92.1487H184.848ZM81.8835 96.5703L81.8801 96.0703L81.8618 96.0704L81.8435 96.0719L81.8835 96.5703ZM95.0039 97.8692L94.8927 98.3566L94.8927 98.3566L95.0039 97.8692ZM110.584 138.604L111.041 138.808L111.041 138.808L110.584 138.604ZM66.2774 157.976L66.4015 157.492L66.4015 157.492L66.2774 157.976ZM49.6975 141.118L49.2203 141.268L49.2203 141.268L49.6975 141.118ZM45.2386 113.124L44.7393 113.098L44.7393 113.098L45.2386 113.124ZM68.6606 97.5376L68.7208 98.0339L68.7208 98.0339L68.6606 97.5376ZM81.8835 96.5703L81.887 97.0703L81.9053 97.0702L81.9236 97.0687L81.8835 96.5703ZM175.366 96.5703H174.866V97.0669L175.363 97.0703L175.366 96.5703ZM188.589 97.5376L188.529 98.0339L188.529 98.0339L188.589 97.5376ZM212.011 113.124L211.512 113.149L211.512 113.149L212.011 113.124ZM207.552 141.118L208.03 141.268L208.03 141.268L207.552 141.118ZM190.972 157.976L190.848 157.492L190.848 157.492L190.972 157.976ZM146.666 138.604L146.209 138.808L146.209 138.808L146.666 138.604ZM162.246 97.8692L162.135 97.3817L162.135 97.3817L162.246 97.8692ZM175.366 96.5703H175.866V96.0737L175.37 96.0703L175.366 96.5703ZM184.844 91.6487C177.005 91.7052 169.319 93.0545 161.703 94.6449C154.072 96.2382 146.53 98.0684 138.91 99.1148L139.046 100.106C146.712 99.0528 154.319 97.2083 161.907 95.6238C169.51 94.0362 177.116 92.7044 184.851 92.6487L184.844 91.6487ZM138.91 99.1148C132.563 99.9864 126.032 100.199 119.694 99.3906L119.567 100.383C126.011 101.204 132.632 100.986 139.046 100.106L138.91 99.1148ZM119.694 99.3906C115.476 98.8529 111.321 97.8692 107.138 96.8527C102.965 95.8383 98.7616 94.7903 94.4896 94.1415L94.3394 95.1302C98.559 95.771 102.715 96.8068 106.902 97.8244C111.081 98.8401 115.287 99.8369 119.567 100.383L119.694 99.3906ZM94.4896 94.1415C86.9097 92.9903 79.1879 91.7803 71.5082 91.7316L71.5019 92.7316C79.0954 92.7798 86.742 93.9763 94.3394 95.1302L94.4896 94.1415ZM71.5082 91.7316C64.7807 91.6889 58.1754 92.8033 51.6327 94.2259C45.0662 95.6537 38.6152 97.3782 32.0781 98.5936L32.2609 99.5767C38.8068 98.3597 45.351 96.6151 51.8452 95.203C58.3633 93.7858 64.8842 92.6896 71.5019 92.7316L71.5082 91.7316ZM31.6695 99.0851C31.6695 100.105 31.6215 101.198 31.579 102.325C31.5367 103.448 31.5 104.601 31.5255 105.719C31.576 107.934 31.8694 110.112 32.9337 111.69L33.7628 111.131C32.8711 109.809 32.5752 107.887 32.5252 105.696C32.5005 104.612 32.536 103.485 32.5783 102.363C32.6204 101.246 32.6695 100.129 32.6695 99.0851H31.6695ZM32.9337 111.69C33.4532 112.46 34.0581 113.209 34.676 113.951C35.2987 114.699 35.931 115.436 36.5306 116.21C37.7273 117.753 38.7457 119.38 39.1637 121.3L40.1408 121.087C39.6758 118.952 38.5511 117.183 37.3209 115.597C36.7071 114.805 36.055 114.044 35.4445 113.311C34.8293 112.572 34.2521 111.857 33.7628 111.131L32.9337 111.69ZM39.1637 121.3C41.2638 130.945 44.2454 140.4 48.0578 149.465L48.9796 149.077C45.1912 140.069 42.228 130.673 40.1408 121.087L39.1637 121.3ZM48.0578 149.465C49.9622 153.992 53.5486 157.128 57.5058 159.272L57.9822 158.393C54.1547 156.319 50.7691 153.332 48.9796 149.077L48.0578 149.465ZM57.5058 159.272C67.0054 164.419 78.2198 165.163 88.5717 163.555L88.4183 162.567C78.2032 164.153 67.2291 163.403 57.9822 158.393L57.5058 159.272ZM88.5717 163.555C103.491 161.238 111.532 149.159 117.601 135.602L116.688 135.194C110.635 148.715 102.787 160.335 88.4183 162.567L88.5717 163.555ZM117.607 135.588C118.759 132.793 119.401 129.778 120.115 126.898C120.835 123.996 121.631 121.214 123.084 118.768L122.224 118.257C120.69 120.841 119.866 123.75 119.144 126.657C118.418 129.586 117.799 132.5 116.682 135.207L117.607 135.588ZM123.084 118.768C123.844 117.489 125.104 117.083 126.654 117.026C127.43 116.997 128.249 117.057 129.079 117.126C129.896 117.195 130.733 117.275 131.497 117.272L131.493 116.272C130.784 116.274 130.002 116.201 129.163 116.13C128.335 116.06 127.461 115.995 126.617 116.026C124.927 116.089 123.239 116.549 122.224 118.257L123.084 118.768ZM131.497 117.272C132.077 117.27 132.676 117.528 133.283 118.031C133.89 118.534 134.474 119.256 135.011 120.109C136.085 121.816 136.919 123.966 137.366 125.685L138.334 125.434C137.867 123.637 136.997 121.388 135.858 119.577C135.288 118.671 134.638 117.855 133.921 117.261C133.203 116.666 132.385 116.268 131.493 116.272L131.497 117.272ZM137.366 125.686C140.604 138.142 146.037 151.523 156.938 158.154L157.458 157.3C146.92 150.89 141.566 137.866 138.334 125.434L137.366 125.686ZM156.938 158.154C165.046 163.087 175.471 165.086 185.185 163.636C194.903 162.186 203.953 157.274 209.238 148.337L208.378 147.828C203.277 156.452 194.526 161.231 185.037 162.647C175.544 164.064 165.356 162.105 157.458 157.3L156.938 158.154ZM209.238 148.337C211.304 144.844 212.615 140.991 213.664 137.056C214.188 135.088 214.649 133.093 215.104 131.111C215.56 129.125 216.011 127.153 216.518 125.217L215.551 124.963C215.039 126.917 214.584 128.905 214.129 130.887C213.674 132.871 213.217 134.85 212.698 136.798C211.659 140.696 210.376 144.449 208.378 147.828L209.238 148.337ZM216.518 125.217C217.145 122.823 217.721 120.277 218.688 117.99C219.649 115.714 220.974 113.759 223.054 112.532L222.546 111.671C220.211 113.048 218.773 115.219 217.766 117.601C216.764 119.974 216.165 122.62 215.551 124.963L216.518 125.217ZM223.054 112.532C223.661 112.174 223.971 111.566 224.125 110.916C224.279 110.269 224.295 109.515 224.266 108.761C224.237 108.009 224.159 107.198 224.108 106.465C224.056 105.714 224.031 105.034 224.091 104.472L223.097 104.365C223.026 105.022 223.058 105.78 223.111 106.534C223.165 107.306 223.239 108.066 223.267 108.799C223.295 109.53 223.273 110.174 223.152 110.685C223.032 111.192 222.829 111.503 222.546 111.671L223.054 112.532ZM224.091 104.472C224.161 103.829 224.252 103.156 224.29 102.539C224.329 101.917 224.319 101.295 224.166 100.725C224.01 100.142 223.704 99.6163 223.169 99.2052C222.643 98.8016 221.93 98.5352 221.003 98.3971L220.855 99.3862C221.68 99.509 222.212 99.732 222.56 99.9985C222.897 100.258 223.093 100.583 223.2 100.984C223.311 101.399 223.328 101.894 223.292 102.477C223.256 103.064 223.171 103.681 223.097 104.365L224.091 104.472ZM221.003 98.3971C217.99 97.9485 215.015 97.0409 211.98 96.1159C208.958 95.1947 205.877 94.2569 202.706 93.7821L202.558 94.7711C205.644 95.2331 208.655 96.1478 211.689 97.0724C214.71 97.9932 217.756 98.9247 220.855 99.3862L221.003 98.3971ZM202.706 93.7821C196.823 92.901 190.944 91.6047 184.844 91.6487L184.851 92.6487C190.848 92.6054 196.585 93.8765 202.558 94.7711L202.706 93.7821ZM184.348 92.1487V92.1487H185.348V92.1487H184.348ZM81.887 97.0703C86.28 97.0402 90.6424 97.3871 94.8927 98.3566L95.1151 97.3817C90.7713 96.3908 86.3289 96.0398 81.8801 96.0703L81.887 97.0703ZM94.8927 98.3566C107.669 101.271 113.944 105.519 115.87 111.755C116.84 114.895 116.733 118.607 115.71 123.025C114.687 127.444 112.758 132.53 110.128 138.399L111.041 138.808C113.68 132.918 115.64 127.763 116.684 123.251C117.728 118.74 117.868 114.833 116.825 111.459C114.727 104.667 107.942 100.308 95.1151 97.3817L94.8927 98.3566ZM110.128 138.399C105.884 147.869 99.3835 153.762 91.7515 156.733C84.1089 159.708 75.2898 159.769 66.4015 157.492L66.1533 158.46C75.1922 160.776 84.2323 160.733 92.1143 157.665C100.007 154.592 106.696 148.502 111.041 138.808L110.128 138.399ZM66.4015 157.492C58.3373 155.425 52.7987 149.357 50.1747 140.969L49.2203 141.268C51.9265 149.918 57.6898 156.292 66.1533 158.46L66.4015 157.492ZM50.1747 140.969C47.3687 132 45.2608 122.512 45.738 113.149L44.7393 113.098C44.2532 122.635 46.4007 132.255 49.2203 141.268L50.1747 140.969ZM45.738 113.149C45.8946 110.078 46.8143 107.692 48.233 105.813C49.6552 103.93 51.5992 102.53 53.8414 101.469C58.3428 99.3392 63.9545 98.612 68.7208 98.0339L68.6004 97.0412C63.8629 97.6158 58.0861 98.3543 53.4137 100.565C51.069 101.675 48.9798 103.165 47.435 105.21C45.8865 107.261 44.9052 109.843 44.7393 113.098L45.738 113.149ZM68.7208 98.0339C73.0734 97.506 77.4931 97.1004 81.887 97.0703L81.8801 96.0703C77.432 96.1008 72.9699 96.5112 68.6004 97.0412L68.7208 98.0339ZM81.9236 97.0687L81.9236 97.0687L81.8435 96.0719L81.8435 96.0719L81.9236 97.0687ZM175.363 97.0703C179.757 97.1004 184.177 97.506 188.529 98.0339L188.65 97.0412C184.28 96.5112 179.818 96.1008 175.37 96.0703L175.363 97.0703ZM188.529 98.0339C193.295 98.612 198.907 99.3392 203.408 101.469C205.651 102.53 207.595 103.93 209.017 105.813C210.436 107.692 211.355 110.078 211.512 113.149L212.511 113.098C212.345 109.843 211.363 107.261 209.815 105.21C208.27 103.165 206.181 101.675 203.836 100.565C199.164 98.3543 193.387 97.6158 188.65 97.0412L188.529 98.0339ZM211.512 113.149C211.989 122.512 209.881 132 207.075 140.969L208.03 141.268C210.849 132.255 212.997 122.635 212.511 113.098L211.512 113.149ZM207.075 140.969C204.451 149.357 198.913 155.425 190.848 157.492L191.097 158.46C199.56 156.292 205.323 149.918 208.03 141.268L207.075 140.969ZM190.848 157.492C181.96 159.769 173.141 159.708 165.498 156.733C157.866 153.762 151.366 147.869 147.122 138.399L146.209 138.808C150.554 148.502 157.243 154.592 165.136 157.665C173.018 160.733 182.058 160.776 191.097 158.46L190.848 157.492ZM147.122 138.399C144.491 132.53 142.563 127.444 141.54 123.025C140.517 118.607 140.41 114.895 141.38 111.755C143.306 105.519 149.581 101.271 162.357 98.3566L162.135 97.3817C149.308 100.308 142.523 104.667 140.424 111.459C139.382 114.833 139.522 118.74 140.566 123.251C141.61 127.763 143.57 132.918 146.209 138.808L147.122 138.399ZM162.357 98.3566C166.608 97.3871 170.97 97.0402 175.363 97.0703L175.37 96.0703C170.921 96.0398 166.479 96.3908 162.135 97.3817L162.357 98.3566ZM174.866 96.5703V96.5703H175.866V96.5703H174.866Z" fill="black"/>
<path opacity="0.85" fill-rule="evenodd" clip-rule="evenodd" d="M68.6571 97.5471C77.379 96.4891 86.4048 95.9165 94.9991 97.877C120.602 103.717 121.118 115.094 110.578 138.613C101.99 157.777 84.2076 162.58 66.2804 157.987C58.0166 155.869 52.3624 149.626 49.6973 141.107C46.8844 132.116 44.745 122.568 45.2267 113.118C45.8717 100.463 59.1532 98.7 68.6571 97.5471V97.5471V97.5471V97.5471Z" fill="black" stroke="black"/>
<path opacity="0.85" fill-rule="evenodd" clip-rule="evenodd" d="M188.584 97.5471C179.862 96.4891 170.837 95.9166 162.242 97.877C136.64 103.717 136.123 115.094 146.663 138.613C155.252 157.777 173.034 162.58 190.961 157.987C199.225 155.869 204.879 149.626 207.544 141.107C210.357 132.116 212.496 122.568 212.015 113.118C211.37 100.463 198.088 98.6999 188.584 97.5471V97.5471V97.5471Z" fill="black" stroke="black"/>
</g>
<defs>
<linearGradient id="paint0_linear" x1="0" y1="0" x2="0" y2="256" gradientUnits="userSpaceOnUse">
<stop stop-color="#FFE46D"/>
<stop offset="1" stop-color="#FFBE00"/>
</linearGradient>
</defs>
</svg>
